<svg width="256" height="257" viewBox="0 0 256 257" fill="none" xmlns="http://www.w3.org/2000/svg">
<rect x="25.4502" y="27.4474" width="205.099" height="205.099" rx="43.914" fill="url(#paint0_linear_3_45)"/>
<rect x="26.2002" y="28.1974" width="203.599" height="203.599" rx="43.164" stroke="url(#paint1_linear_3_45)" stroke-opacity="0.16" stroke-width="1.5"/>
<path d="M68.8765 176.75V167.709L77.3888 166.477L98.7574 131.019L85.901 110.472C84.179 107.85 82.6135 106.05 81.2046 105.071C79.7957 104.054 78.2498 103.545 76.5669 103.545C75.7842 103.545 75.0014 103.623 74.2187 103.78C73.436 103.897 72.6728 104.034 71.9292 104.191L69.7571 93.3302C71.0878 92.4692 72.575 91.7843 74.2187 91.2756C75.9016 90.7668 77.8193 90.5124 79.9718 90.5124C83.6506 90.5124 86.7424 91.393 89.2472 93.1541C91.7911 94.8761 94.4523 98.0266 97.231 102.606L112.083 127.731H120.713V102.136L111.379 100.375V91.2756H144.782V100.375L135.448 102.136V127.731H144.489L159.223 102.606C161.885 97.9875 164.487 94.8174 167.031 93.0954C169.614 91.3734 172.765 90.5124 176.483 90.5124C178.596 90.5124 180.475 90.7668 182.118 91.2756C183.762 91.7843 185.249 92.4692 186.58 93.3302L184.467 104.191C183.723 104.034 182.96 103.897 182.177 103.78C181.434 103.623 180.69 103.545 179.946 103.545C178.263 103.545 176.678 104.034 175.191 105.013C173.743 105.991 172.197 107.811 170.554 110.472L157.345 131.43L178.303 166.477L187.05 167.709V176.75H156.699V167.709L160.574 167.005L160.456 166.77L145.839 140.823H135.448V165.948L144.782 167.709V176.75H111.379V167.709L120.713 165.948V140.823H110.087L95.2351 166.711L95.1177 167.005L98.9922 167.709V176.75H68.8765Z" fill="#333333"/>
<path d="M71.3765 179.25V170.209L79.8888 168.977L101.257 133.519L88.401 112.972C86.679 110.35 85.1135 108.55 83.7046 107.571C82.2957 106.554 80.7498 106.045 79.0669 106.045C78.2842 106.045 77.5014 106.123 76.7187 106.28C75.936 106.397 75.1728 106.534 74.4292 106.691L72.2571 95.8302C73.5878 94.9692 75.075 94.2843 76.7187 93.7756C78.4016 93.2668 80.3193 93.0124 82.4718 93.0124C86.1506 93.0124 89.2424 93.893 91.7472 95.6541C94.2911 97.3761 96.9523 100.527 99.731 105.106L114.583 130.231H123.213V104.636L113.879 102.875V93.7756H147.282V102.875L137.948 104.636V130.231H146.989L161.723 105.106C164.385 100.487 166.987 97.3174 169.531 95.5954C172.114 93.8734 175.265 93.0124 178.983 93.0124C181.096 93.0124 182.975 93.2668 184.618 93.7756C186.262 94.2843 187.749 94.9692 189.08 95.8302L186.967 106.691C186.223 106.534 185.46 106.397 184.677 106.28C183.934 106.123 183.19 106.045 182.446 106.045C180.763 106.045 179.178 106.534 177.691 107.513C176.243 108.491 174.697 110.311 173.054 112.972L159.845 133.93L180.803 168.977L189.55 170.209V179.25H159.199V170.209L163.074 169.505L162.956 169.27L148.339 143.323H137.948V168.448L147.282 170.209V179.25H113.879V170.209L123.213 168.448V143.323H112.587L97.7351 169.211L97.6177 169.505L101.492 170.209V179.25H71.3765Z" fill="#333333" fill-opacity="0.2"/>
<circle cx="108.625" cy="68.375" r="6.875" fill="#46DEFF"/>
<circle cx="108.625" cy="68.375" r="6.125" stroke="black" stroke-opacity="0.06" stroke-width="1.5"/>
<circle cx="147.375" cy="68.375" r="6.875" fill="#46DEFF"/>
<circle cx="147.375" cy="68.375" r="6.125" stroke="black" stroke-opacity="0.06" stroke-width="1.5"/>
<defs>
<linearGradient id="paint0_linear_3_45" x1="128" y1="27.4474" x2="128" y2="232.546" gradientUnits="userSpaceOnUse">
<stop stop-color="white"/>
<stop offset="0.708333" stop-color="#FBFBFB"/>
<stop offset="1" stop-color="#DADADA"/>
</linearGradient>
<linearGradient id="paint1_linear_3_45" x1="128" y1="27.4474" x2="128" y2="232.546" gradientUnits="userSpaceOnUse">
<stop/>
<stop offset="0.729167" stop-color="white"/>
<stop offset="1" stop-color="white"/>
</linearGradient>
</defs>
</svg>
